<?xml version="1.0" encoding="utf-8"?>
<!-- Svg Vector Icons : http://www.onlinewebfonts.com/icon -->
<!DOCTYPE svg PUBLIC "-//W3C//DTD SVG 1.1//EN" "http://www.w3.org/Graphics/SVG/1.1/DTD/svg11.dtd">
<svg version="1.1" xmlns="http://www.w3.org/2000/svg" xmlns:xlink="http://www.w3.org/1999/xlink" x="0px" y="0px" viewBox="0 0 1000 1000" enable-background="new 0 0 1000 1000" xml:space="preserve">
<metadata> Svg Vector Icons : http://www.onlinewebfonts.com/icon </metadata>
<g><path d="M980.9,220.6l-93.5-88.7c-14.2-13.5-39.8-9.7-57.2,8.4L475.8,509L306.3,334.2c-9-8.5-27-4.1-40.4,9.8l-88.2,91.8c-13.4,13.9-16.9,32.1-8,40.6l288.7,287.9c14.2,13.4,39.8,9.7,57.2-8.4L975,277.7C992.4,259.6,995,234.1,980.9,220.6z"/><path d="M763.6,823.2c0,1.9-1.5,3.4-3.4,3.4H96.9c-1.9,0-3.4-1.5-3.4-3.4l0-646.4c0-1.9,1.5-3.4,3.4-3.4h575.6L758.9,90h-662C49,90,10,128.9,10,176.8v646.3c0,47.9,39,86.9,86.9,86.9h663.4c47.9,0,86.9-39,86.9-86.9V554l-83.5,80.7V823.2z"/></g>
</svg>