<?xml version="1.0" encoding="utf-8"?>
<!-- Svg Vector Icons : http://www.onlinewebfonts.com/icon -->
<!DOCTYPE svg PUBLIC "-//W3C//DTD SVG 1.1//EN" "http://www.w3.org/Graphics/SVG/1.1/DTD/svg11.dtd">
<svg version="1.1" xmlns="http://www.w3.org/2000/svg" xmlns:xlink="http://www.w3.org/1999/xlink" x="0px" y="0px" viewBox="0 0 1000 1000" enable-background="new 0 0 1000 1000" xml:space="preserve">
<metadata> Svg Vector Icons : http://www.onlinewebfonts.com/icon </metadata>
<g><g transform="translate(0.000000,512.000000) scale(0.100000,-0.100000)"><path d="M4530.1,5007.9C3375.4,4889,2341.7,4400,1530.4,3588.6C751.6,2809.9,287.5,1860.5,124.4,723.1c-32.6-226.3-32.6-982,0-1208.3c163-1137.4,629.1-2086.8,1405.9-2865.5c776.8-776.8,1730-1244.8,2865.5-1405.9c226.3-32.6,982-32.6,1208.3,0c939.8,134.3,1779.9,491,2474.2,1053c987.8,797.9,1611.1,1916.1,1797.2,3218.4c32.6,226.3,32.6,982,0,1208.3c-161.1,1135.5-629.1,2088.7-1405.9,2865.5c-759.5,759.5-1687.8,1223.7-2779.2,1392.5C5448.8,5017.5,4775.6,5034.8,4530.1,5007.9z M6108.6,3216.5c218.7-65.2,422-283.9,500.6-535.1c117-381.7,88.2-932.1-76.7-1377.1c-30.7-88.2-63.3-172.6-67.1-189.9c-9.6-28.8,32.6-32.6,456.5-40.3c439.2-7.7,473.8-11.5,619.5-59.5c257-84.4,427.7-214.8,575.4-433.5c186.1-282,230.2-469.9,228.3-970.5c-1.9-391.3-26.9-613.8-124.7-1112.4c-80.6-416.2-180.3-788.3-249.3-926.4c-126.6-257-412.4-466.1-730.8-529.4c-496.7-101.6-1789.5-65.2-2082.9,55.6c-36.5,17.3-124.7,65.2-193.7,109.3c-69.1,44.1-220.6,134.3-337.6,203.3l-211,122.8l-203.3,9.6c-111.2,5.8-243.6,5.8-293.5-1.9l-88.2-13.4v-86.3v-84.4H2736.8H1643.5v1630.3V617.7h1093.3c728.8,0,1093.3-5.7,1093.3-19.2c0-57.5,420,212.9,615.7,397c283.9,268.5,554.3,786.4,855.4,1645.6c94,268.5,212.9,504.4,276.2,552.4c28.8,19.2,80.5,44.1,115.1,53.7C5774.9,3266.4,5989.7,3251.1,6108.6,3216.5z"/><path d="M5805.5,2733.2c-21.1-49.9-97.8-241.7-166.9-427.7c-235.9-629.1-377.8-932.1-594.6-1265.9c-211-324.1-608-650.2-1028-843.9l-186-86.3V-957v-1068.3l341.4-5.8l339.5-7.7l239.7-132.3c132.4-72.9,314.6-178.4,404.7-234c90.1-55.6,203.3-111.3,249.3-120.8c372.1-82.5,1511.4-78.6,1812.5,7.7c128.5,36.4,270.4,134.3,339.5,232.1c63.3,90.1,136.2,352.9,234,842c90.1,452.6,128.5,759.5,130.4,1074.1c1.9,305-23,448.8-103.6,609.9C7737,397.1,7643,493,7497.2,564l-128.5,63.3l-828.6,5.8c-456.5,1.9-830.5,11.5-830.5,17.3c0,7.7,59.5,105.5,134.3,218.6c147.7,226.3,218.7,370.2,293.4,602.3c88.2,278.1,99.7,351,99.7,671.3c0,249.3-5.8,326.1-34.5,408.5c-59.5,168.8-176.5,272.4-308.8,272.4C5855.4,2823.4,5838.2,2806.1,5805.5,2733.2z"/></g></g>
</svg>