<?xml version="1.0" encoding="utf-8"?>
<!-- Svg Vector Icons : http://www.onlinewebfonts.com/icon -->
<!DOCTYPE svg PUBLIC "-//W3C//DTD SVG 1.1//EN" "http://www.w3.org/Graphics/SVG/1.1/DTD/svg11.dtd">
<svg version="1.1" xmlns="http://www.w3.org/2000/svg" xmlns:xlink="http://www.w3.org/1999/xlink" x="0px" y="0px" viewBox="0 0 1000 1000" enable-background="new 0 0 1000 1000" xml:space="preserve">
<metadata> Svg Vector Icons : http://www.onlinewebfonts.com/icon </metadata>
<g><g transform="translate(0.000000,512.000000) scale(0.100000,-0.100000)"><path d="M4530.1,5007.9C3375.4,4889,2341.7,4400,1530.4,3588.6C751.6,2809.9,287.5,1860.5,124.4,723.1c-32.6-226.3-32.6-982,0-1208.3c163-1137.4,629.1-2086.8,1405.9-2865.5c776.8-776.8,1730-1244.8,2865.5-1405.9c226.3-32.6,982-32.6,1208.3,0c939.8,134.3,1779.9,491,2474.2,1053c987.8,797.9,1611.1,1916.1,1797.2,3218.4c32.6,226.3,32.6,982,0,1208.3c-161.1,1135.5-629.1,2088.7-1405.9,2865.5c-759.5,759.5-1687.8,1223.7-2779.2,1392.5C5448.8,5017.5,4775.6,5034.8,4530.1,5007.9z M2773.2,2717.9c115.1-63.3,211-165,272.4-295.4c34.5-69,44.1-122.7,44.1-251.3c1.9-151.5-3.8-170.7-67.1-287.7c-241.7-439.2-863.1-437.3-1087.5,0c-113.2,222.5-99.7,437.3,38.4,644.4c65.2,97.8,207.1,205.2,310.7,237.8c32.6,9.6,132.3,15.3,222.5,13.4C2644.7,2773.5,2685,2765.8,2773.2,2717.9z M7815.6,2717.9c362.5-197.6,433.5-700.1,138.1-983.9c-118.9-117-232.1-165-402.8-172.6c-189.9-9.6-329.9,42.2-456.5,164.9c-140,136.2-184.1,247.4-186.1,445c0,126.6,9.6,182.2,40.3,251.3c59.5,128.5,166.9,237.8,301.1,305c111.2,57.5,128.5,59.5,291.5,53.7C7687.1,2775.4,7729.3,2765.8,7815.6,2717.9z M5176.5,2668c257-53.7,500.6-251.3,617.6-496.8c55.6-117,59.5-138.1,59.5-356.7c0-228.2,0-232.1-72.9-375.9c-84.4-170.7-241.7-329.9-404.7-406.6c-431.5-205.2-943.7-24.9-1156.6,406.6c-72.9,143.9-72.9,147.7-72.9,375.9c0,222.5,1.9,237.8,61.4,362.5C4382.4,2543.3,4787.1,2748.6,5176.5,2668z M3222,1310.1c258.9-55.6,306.9-71,320.3-105.5c7.7-23,42.2-176.5,76.7-341.4c51.8-247.4,71-303,95.9-303c19.2,0,188,34.5,375.9,76.7l343.3,76.7l90.2,90.2l90.1,88.2L4748.7,750c74.8-78.6,134.3-155.4,134.3-170.7c0-15.3-32.6-385.5-74.8-822.8l-74.8-794l126.6-141.9c69-76.7,132.4-140,140-140c5.8,0,71,65.2,141.9,143.8l128.5,141.9l-76.7,811.3c-42.2,445-69.1,820.9-63.3,832.4c7.7,13.4,69.1,80.5,136.2,151.5l122.7,126.6l88.2-86.3l88.2-88.2l343.3-76.7c188-42.2,358.7-76.7,375.9-76.7c26.9,0,44.1,53.7,94,293.5c34.5,159.2,69,312.6,76.7,339.5c13.4,44.1,38.4,53.7,339.5,120.8c289.6,65.2,331.8,80.6,387.4,134.3l61.4,59.5l97.8-97.8l99.7-97.8L7386,727l-53.7-586.9l94-109.3l94-109.3L7612.3,25c65.2,72.9,90.2,120.8,92.1,161.1c0,32.6-23,297.3-49.9,592.7l-51.8,533.2l97.8,97.8l99.7,97.8l61.4-59.5c55.6-53.7,97.8-69,379.8-130.4c174.5-40.3,322.2-76.7,329.9-82.5c7.7-7.7,69-276.2,140-596.5L8836,55.7l-234-504.5l-235.9-504.4l-780.6-1.9c-431.6,0-782.5-5.8-782.5-11.5c0-5.8,9.6-47.9,21.1-92.1l21.1-82.5L6513.3-1845l-333.7-702H5000H3818.5l-328,698.1c-314.5,665.5-328,700.1-310.7,771c7.7,42.2,17.3,86.3,17.3,99.7c0,17.3-168.8,23-780.6,23l-782.5,1.9l-234,504.4l-234,506.4l124.7,583.1c69,318.4,132.3,586.9,138.1,594.6c7.7,5.7,155.4,42.2,329.9,82.5c281.9,61.4,324.1,76.7,379.8,130.4l61.4,59.5l99.7-97.8l97.8-99.7l-53.7-585l-53.7-585l94-109.3l92.1-107.4l97.8,109.3l97.8,109.3l-53.7,558.1c-28.8,308.8-51.8,571.6-53.7,585c0,13.4,44.1,72.9,97.8,130.4l99.7,103.6l78.7-72.9C2913.2,1379.1,2938.1,1371.4,3222,1310.1z"/></g></g>
</svg>