
<svg viewBox="218.3492 129.4202 207.6508 86.1598" width="202.44553956717633" height="84" xmlns="http://www.w3.org/2000/svg" xmlns:xlink="http://www.w3.org/1999/xlink" preserveAspectRatio="none"><g opacity="1" transform="rotate(0 218.3492 129.4202)">
<svg width="207.6508" height="86.1598" x="218.3492" y="129.4202" version="1.1" preserveAspectRatio="none" viewBox="4.8 -28.48 272.15999999999997 112.92">
  <g transform="matrix(1 0 0 1 0 0)" class="companyName19a4f0bc-0019-457e-a519-ed94d72d2ba0"><path id="id-19a4f0bc-0019-457e-a519-ed94d72d2ba0D6z1nYkh19" d="M4.80-28L4.80 0L8.44 0L8.44-9.84L12.96-14.68L23.60 0L27.76 0L15.28-17.16L25.44-28L23.44-28L8.44-12.24L8.44-28L4.80-28Z M30.96-14L30.96-14Q30.96-11.76 31.82-9.22Q32.68-6.68 34.52-4.52Q36.36-2.36 39.20-0.94Q42.04 0.48 46 0.48L46 0.48Q48.68 0.48 50.86-0.18Q53.04-0.84 54.78-1.96Q56.52-3.08 57.80-4.54Q59.08-6 59.90-7.62Q60.72-9.24 61.14-10.88Q61.56-12.52 61.56-14L61.56-14Q61.56-16.24 60.64-18.78Q59.72-21.32 57.80-23.48Q55.88-25.64 52.94-27.06Q50-28.48 46-28.48L46-28.48Q42.04-28.48 39.20-27.08Q36.36-25.68 34.52-23.54Q32.68-21.40 31.82-18.84Q30.96-16.28 30.96-14ZM34.88-14L34.88-14Q34.88-16.80 35.74-19.14Q36.60-21.48 38.10-23.16Q39.60-24.84 41.64-25.78Q43.68-26.72 46.08-26.72L46.08-26.72Q48.44-26.72 50.54-25.78Q52.64-24.84 54.22-23.16Q55.80-21.48 56.72-19.14Q57.64-16.80 57.64-14L57.64-14Q57.64-11.20 56.72-8.86Q55.80-6.52 54.22-4.84Q52.64-3.16 50.54-2.22Q48.44-1.28 46.08-1.28L46.08-1.28Q43.68-1.28 41.64-2.22Q39.60-3.16 38.10-4.84Q36.60-6.52 35.74-8.86Q34.88-11.20 34.88-14Z M93.96 0L81.80-28L79.60-28L70.96-5.92Q70.28-4.12 69.66-3.04Q69.04-1.96 67.72-1.96L67.72-1.96Q67.20-1.96 66.72-2.24Q66.24-2.52 65.84-2.72L65.84-2.72L64.76 0Q65.44 0.24 66.22 0.36Q67 0.48 67.80 0.48L67.80 0.48Q69.08 0.48 70.10-0.60Q71.12-1.68 71.92-3.72L71.92-3.72L79.72-23.52L79.88-23.52L90 0L93.96 0Z M97.16-14L97.16-14Q97.16-11.76 98.02-9.22Q98.88-6.68 100.72-4.52Q102.56-2.36 105.40-0.94Q108.24 0.48 112.20 0.48L112.20 0.48Q114.88 0.48 117.06-0.18Q119.24-0.84 120.98-1.96Q122.72-3.08 124-4.54Q125.28-6 126.10-7.62Q126.92-9.24 127.34-10.88Q127.76-12.52 127.76-14L127.76-14Q127.76-16.24 126.84-18.78Q125.92-21.32 124-23.48Q122.08-25.64 119.14-27.06Q116.20-28.48 112.20-28.48L112.20-28.48Q108.24-28.48 105.40-27.08Q102.56-25.68 100.72-23.54Q98.88-21.40 98.02-18.84Q97.16-16.28 97.16-14ZM101.08-14L101.08-14Q101.08-16.80 101.94-19.14Q102.80-21.48 104.30-23.16Q105.80-24.84 107.84-25.78Q109.88-26.72 112.28-26.72L112.28-26.72Q114.64-26.72 116.74-25.78Q118.84-24.84 120.42-23.16Q122-21.48 122.92-19.14Q123.84-16.80 123.84-14L123.84-14Q123.84-11.20 122.92-8.86Q122-6.52 120.42-4.84Q118.84-3.16 116.74-2.22Q114.64-1.28 112.28-1.28L112.28-1.28Q109.88-1.28 107.84-2.22Q105.80-3.16 104.30-4.84Q102.80-6.52 101.94-8.86Q101.08-11.20 101.08-14Z M150.12-3.96L137.28-28L134.56-28L134.56 0L136.32 0L136.32-22.84L136.48-22.84L148.84 0.48L149.56 0.48L162.20-22.68L162.36-22.68L162.36 0L166 0L166-28L163.24-28L150.28-3.96L150.12-3.96Z M180.84-28L177.20-28L177.20 0L180.84 0L180.84-28Z M203.04-28.48L203.04-28.48Q206.96-28.48 210.30-27.16Q213.64-25.84 215.68-22.96L215.68-22.96L213.64-21Q212.84-22.20 211.82-23.24Q210.80-24.28 209.52-25.06Q208.24-25.84 206.70-26.28Q205.16-26.72 203.40-26.72L203.40-26.72Q200.64-26.72 198.60-25.76Q196.56-24.80 195.18-23.24Q193.80-21.68 193.12-19.76Q192.44-17.84 192.44-15.92L192.44-15.92L192.44-15.76L205.76-15.76L205.76-13.96L192.44-13.96L192.44-13.76Q192.44-11.36 193.20-9.10Q193.96-6.84 195.38-5.10Q196.80-3.36 198.86-2.32Q200.92-1.28 203.56-1.28L203.56-1.28Q205.32-1.28 206.82-1.72Q208.32-2.16 209.58-2.94Q210.84-3.72 211.84-4.76Q212.84-5.80 213.64-7L213.64-7L215.68-5.04Q214.68-3.60 213.28-2.56Q211.88-1.52 210.26-0.84Q208.64-0.16 206.86 0.16Q205.08 0.48 203.28 0.48L203.28 0.48Q200.64 0.48 198.52-0.20Q196.40-0.88 194.76-2Q193.12-3.12 191.92-4.64Q190.72-6.16 189.94-7.80Q189.16-9.44 188.80-11.16Q188.44-12.88 188.44-14.44L188.44-14.44Q188.44-17.84 189.58-20.46Q190.72-23.08 192.70-24.86Q194.68-26.64 197.34-27.56Q200.00-28.48 203.04-28.48Z M250.20-2.20L246.80-2.20L246.80-28L243.16-28L243.16-2.20L226.52-2.20L226.52-28L222.88-28L222.88 0L246.80 0L246.80 4.20L250.20 4.20L250.20-2.20Z M257.40-28L257.40 0L266.92 0Q269.80 0 271.72-0.76Q273.64-1.52 274.80-2.72Q275.96-3.92 276.46-5.38Q276.96-6.84 276.96-8.28L276.96-8.28Q276.96-9.64 276.42-11Q275.88-12.36 274.70-13.40Q273.52-14.44 271.66-15.10Q269.80-15.76 267.16-15.76L267.16-15.76L261.04-15.76L261.04-28L257.40-28ZM266.72-1.76L261.04-1.76L261.04-14L266.16-14Q267.64-14 268.90-13.54Q270.16-13.08 271.06-12.26Q271.96-11.44 272.46-10.30Q272.96-9.16 272.96-7.84L272.96-7.84Q272.96-6.60 272.50-5.50Q272.04-4.40 271.22-3.56Q270.40-2.72 269.26-2.24Q268.12-1.76 266.72-1.76L266.72-1.76Z M8.44 14L4.80 14L4.80 42L8.44 42L8.44 14Z M28.84 84L28.84 56L4.80 56L4.80 84L8.44 84L8.44 58.20L25.20 58.20L25.20 84L28.84 84Z M40.20 75.76L54 75.76L57.84 84L61.72 84L48.68 56L46.68 56L34.84 84L36.68 84L40.20 75.76ZM46.88 60.48L53.16 73.96L40.96 73.96L46.72 60.48L46.88 60.48Z M71.36 84L71.36 72.32Q72.40 72.60 73.60 72.78Q74.80 72.96 76.24 72.96L76.24 72.96Q78.68 72.96 80.56 72.28Q82.44 71.60 83.70 70.42Q84.96 69.24 85.60 67.70Q86.24 66.16 86.24 64.40L86.24 64.40Q86.24 62.72 85.68 61.18Q85.12 59.64 83.98 58.50Q82.84 57.36 81.12 56.68Q79.40 56 77.08 56L77.08 56L67.72 56L67.72 84L71.36 84ZM71.36 70.68L71.36 57.76L75.56 57.76Q77.24 57.76 78.52 58.36Q79.80 58.96 80.64 59.94Q81.48 60.92 81.90 62.14Q82.32 63.36 82.32 64.56L82.32 64.56Q82.32 65.72 81.94 66.90Q81.56 68.08 80.72 69.04Q79.88 70 78.60 70.60Q77.32 71.20 75.52 71.20L75.52 71.20Q74.28 71.20 73.24 71.10Q72.20 71 71.36 70.68L71.36 70.68Z M100.16 84L103.80 84L103.80 58.20L114.52 58.20L114.52 56L89.44 56L89.44 58.20L100.16 58.20L100.16 84Z M123.76 84L123.76 70.08L140.52 70.08L140.52 84L144.16 84L144.16 56L140.52 56L140.52 68.24L123.76 68.24L123.76 56L120.12 56L120.12 84L123.76 84Z M171.84 56L153.76 56L153.76 84L171.84 84L171.84 81.80L157.40 81.80L157.40 70.16L169.80 70.16L169.80 68.24L157.40 68.24L157.40 58.20L171.84 58.20L171.84 56Z M181.48 84L181.48 72.32Q182.52 72.60 183.72 72.78Q184.92 72.96 186.36 72.96L186.36 72.96Q188.80 72.96 190.68 72.28Q192.56 71.60 193.82 70.42Q195.08 69.24 195.72 67.70Q196.36 66.16 196.36 64.40L196.36 64.40Q196.36 62.72 195.80 61.18Q195.24 59.64 194.10 58.50Q192.96 57.36 191.24 56.68Q189.52 56 187.20 56L187.20 56L177.84 56L177.84 84L181.48 84ZM181.48 70.68L181.48 57.76L185.68 57.76Q187.36 57.76 188.64 58.36Q189.92 58.96 190.76 59.94Q191.60 60.92 192.02 62.14Q192.44 63.36 192.44 64.56L192.44 64.56Q192.44 65.72 192.06 66.90Q191.68 68.08 190.84 69.04Q190 70 188.72 70.60Q187.44 71.20 185.64 71.20L185.64 71.20Q184.40 71.20 183.36 71.10Q182.32 71 181.48 70.68L181.48 70.68Z M223.80 56L207.20 80.72L207.20 56L203.56 56L203.56 84L207.20 84L223.80 59L223.80 84L227.44 84L227.44 56L223.80 56Z M235.44 82.28L235.44 82.28Q235.44 81.40 236.08 80.76Q236.72 80.12 237.60 80.12L237.60 80.12Q238.48 80.12 239.12 80.76Q239.76 81.40 239.76 82.28L239.76 82.28Q239.76 83.16 239.12 83.80Q238.48 84.44 237.60 84.44L237.60 84.44Q236.72 84.44 236.08 83.80Q235.44 83.16 235.44 82.28Z"></path></g>
</svg>
</g></svg>