<svg viewBox="36.9998 125 126.3976 86.1604" width="123.22828584825511" height="84" xmlns="http://www.w3.org/2000/svg" xmlns:xlink="http://www.w3.org/1999/xlink" preserveAspectRatio="none"><g opacity="1" transform="rotate(0 36.9998 125)">
<svg width="126.3976" height="86.1604" x="36.9998" y="125" version="1.1" preserveAspectRatio="none" viewBox="16.107524871826172 42.82221603393555 167.7775115966797 114.36695861816406">
  <g transform="matrix(1 0 0 1 0 0)"><g><path d="M183.438 156.278h-13.477c-1.787-2.714-3.679-4.858-8.647-8.725-4.388-3.416-30.963-13.293-38.674-16.12a23.565 23.565 0 0 0-1.932-6.951.45.45 0 0 0-.858.196l.14 6.44a.45.45 0 0 0 .296.413c.043.015.59.214 1.527.557.521 5.423-.855 10.516-2.393 14.297-1.887 4.639-4.333 8.152-5.323 9.479-.635-1.523-.663-2.67-.688-3.697-.044-1.788-.078-3.199-3.094-5.062-3.087-1.907-7.345.453-10.237 2.625 2.913-3.268 7.004-6.561 10.463-9.346 3.236-2.604 5.791-4.662 6.511-5.982 1.671-3.064 2.786-13.508 2.993-15.57.033-.333-.072-.916-.304-1.961 1.277-1.557 2.223-3.178 2.662-4.797.149-.358 1.347-3.342 1.217-6.459.472.423 1.086.738 1.805.593 1.84-.368 3.007-6.392 2.88-8.172-.031-.436.067-1.309.181-2.32.31-2.752.735-6.52-.62-7.977-.406-.437-.932-.643-1.568-.62a.447.447 0 0 0-.341.179c-.085.113-1.985 2.666-2.414 4.924l-.055.01c.563-1.744 1.044-4.034 1.361-7.167a8.09 8.09 0 0 1 .646 1.023.448.448 0 0 0 .837-.092c.013-.051 1.274-5.166 1.413-11.859.148-7.105-1.5-14.158-4.407-18.865-1.045-1.693-2.681-2.267-4.412-2.271.008-.132.013-.264.014-.398.026-2.471-1.11-4.806-3.376-6.941-4.394-4.14-11.988-2.852-16.124-1.716-6.077 1.669-11.588 4.732-13.891 6.896-4.44 4.171-8.929 4.636-8.973 4.64a.45.45 0 0 0-.34.686c.077.123.753 1.083 3.064 1-1.905 2.684-7.488 11.447-5.925 19.982 1.749 9.552 2.345 9.85 2.6 9.977a.497.497 0 0 0 .423.004.447.447 0 0 0 .205-.209c.166-.349.371-.761.61-1.218a64.696 64.696 0 0 0-.1 5.632l-.775-2.102a.447.447 0 0 0-.477-.29c-2.061.258-1.876 2.333-1.508 6.469.134 1.507.301 3.382.415 5.619.19 3.73.878 5.772 2.104 6.244.491.188.947.081 1.287-.081l2.923 11.425c.873 3.411 1.148 6.277 1.101 8.624a61.517 61.517 0 0 0-.291-.444.45.45 0 0 0-.818.176l-.932 5.724c-2.647.626-22.519 5.394-36.025 10.589-13.203 5.078-17.283 11.587-18.035 12.99h-9.523a.449.449 0 1 0 0 .898h9.8a.45.45 0 0 0 .409-.263c.033-.073 3.493-7.333 17.672-12.787 14.363-5.524 35.983-10.571 36.2-10.621a.451.451 0 0 0 .342-.365l.793-4.869.328.517c-.398 4.601-2.031 6.769-2.057 6.802a.456.456 0 0 0-.097.272l-.28 20.859a.448.448 0 0 0 .885.116c.023-.091 2.361-9.111 6.507-9.889 3.352-.631 6.428 6.44 7.33 9.217a.448.448 0 0 0 .875-.17c-.582-8.302-9.072-22.426-12.224-27.413.189-2.643-.022-6.018-1.089-10.186l-3.08-12.04a.45.45 0 0 0-.752-.206c-.005.005-.477.458-.925.286-.384-.148-1.301-.975-1.529-5.451-.115-2.254-.283-4.139-.417-5.653-.347-3.893-.372-5.093.385-5.413l.842 2.285a.45.45 0 0 0 .255.262l.7.28a.452.452 0 0 0 .616-.439c-.082-1.69-.111-4.97.186-7.98.986 2.178 1.864 3.53 1.929 3.629a.248.248 0 0 0 .019.026c1.837 2.403 2.519 4.66 2.026 6.708-.772 3.207-4.208 4.88-4.242 4.897a.45.45 0 0 0-.251.474c.926 6.069 2.995 14.568 7.594 20.596 2.789 3.656 5.179 4.666 5.279 4.707a.448.448 0 0 0 .557-.645c-5.82-9.788-5.518-14.091-4.24-15.978 1.627-2.402 5.425-1.834 5.463-1.828a.452.452 0 0 0 .213-.017c.766-.255 1.628-.788 2.32-1.215.418-.258.892-.551 1.059-.593.064-.01.28.008.454.023.521.045 1.405.12 2.226-.177.908.027 1.936-.303 2.616-.521.324-.103 1.274.28 2.282.685.635.255 1.385.557 2.236.85-2.258.054-5.171.134-6.515.214-.949.056-2.117.278-3.354.514-1.841.35-3.743.713-4.764.477-.153-.035-.618-.143-.867.183-.066.086-.2.321-.024.648.442.827 3.392 2.536 7.374 2.841-.019 1.182.111 2.374.194 3.004a12.44 12.44 0 0 0-2.888 1.176c-2.227 1.272-3.436 3.061-3.499 5.172-.073 2.492.56 4.446 1.881 5.808 1.427 1.469 3.63 2.215 6.547 2.215 4.357 0 13.885-4.69 19.146-10.474.101.493.161.867.146 1.02-.203 2.032-1.299 12.317-2.887 15.229-.634 1.163-3.253 3.271-6.286 5.712-4.693 3.777-10.533 8.478-13.165 12.893a.449.449 0 0 0 .706.545c.079-.08 7.923-7.97 12.323-5.253 2.601 1.607 2.628 2.686 2.667 4.32.029 1.202.066 2.698 1.086 4.739a.448.448 0 0 0 .749.084c.034-.041 3.432-4.217 5.896-10.265 2.274-5.58 2.815-10.375 2.498-14.319 8.128 2.991 33.865 12.598 38.022 15.834 4.992 3.885 6.805 5.982 8.579 8.71a.448.448 0 0 0 .377.204h13.72a.449.449 0 0 0 .449-.449.448.448 0 0 0-.447-.453zm-62.556-25.487l-.078-3.588c.423 1.301.713 2.6.891 3.884l-.813-.296zm-27.328 21.034c-1.476-2.935-3.819-6.289-6.657-5.758-3.085.578-5.181 4.761-6.288 7.686l.238-17.734c.354-.504 1.551-2.424 2.044-5.971 2.882 4.66 8.527 14.328 10.663 21.777zm30.776-73.366a93.229 93.229 0 0 1-.203 4.537 4.93 4.93 0 0 0-1.387-.79c.111-1.375.327-6.106-1.699-8.25.094-1.432.472-9.37-2.35-12.747.503.178 1.098.493 1.712 1.046 1.917 1.728 4.154 5.94 3.927 16.204zm-46.909 5.017a50.935 50.935 0 0 0-1.224 2.25c-.321-.962-.932-3.266-1.934-8.738-.917-5.01.849-10.191 2.493-13.655 1.794-3.782 3.838-6.4 3.858-6.426a.45.45 0 0 0-.417-.723c-1.068.152-1.803.089-2.296-.035 1.72-.417 4.982-1.567 8.267-4.652 4.413-4.146 21.73-11.827 28.784-5.18 2.074 1.954 3.115 4.064 3.094 6.271a6.332 6.332 0 0 1-.02.46c-2.113.212-4.238 1.117-5.498 1.743 1.965-5.732-3.413-9.147-3.471-9.183a.45.45 0 0 0-.542.712c2.083 1.929 1.697 4.804 1.049 6.805-.062-1.441-.399-3.224-1.477-4.668-1.086-1.454-2.723-2.293-4.865-2.494-7.568-.709-21.148 11.494-21.732 12.023-5.267 5.076-7.162 11.878-5.48 19.669.4 1.852.951 3.546 1.522 5.002-.041.27-.078.544-.111.819zm.435-2.552a30.618 30.618 0 0 1-.969-3.458c-1.636-7.578.122-13.915 5.215-18.823.134-.121 13.138-11.812 20.449-11.812.2 0 .395.009.586.027 1.877.176 3.299.894 4.226 2.134 1.911 2.554 1.163 6.532 1.155 6.572a.45.45 0 0 0 .827.315c.039-.065.952-1.625 1.399-3.649.304-1.374.317-2.628.045-3.732 1.133 1.577 1.979 3.988.427 7.092a.45.45 0 0 0 .632.586c.049-.03 3.089-1.825 6.042-2.192-.497 2.392-2.069 4.222-2.684 4.864-4.367-2.87-13.479-2.683-14.083-2.667-8.495-.434-14.148 1.909-17.395 3.954-3.545 2.233-5.047 4.556-5.099 4.637-1.679 2.399-2.114 5.503-1.258 8.975a18.378 18.378 0 0 0 1.645 4.258c-.505.694-.881 1.724-1.16 2.919zm2.038-2.574a.45.45 0 0 0 .051-.533c-.043-.072-4.286-7.231-.565-12.546.057-.09 5.919-9.009 21.717-8.192a.216.216 0 0 0 .036 0c.098-.003 9.832-.242 13.861 2.713a.45.45 0 0 0 .567-.029c.121-.11 2.669-2.449 3.261-5.845 1.501-.011 2.901.445 3.755 1.827 2.778 4.498 4.415 11.539 4.273 18.374-.1 4.794-.782 8.76-1.151 10.583a9.188 9.188 0 0 0-.731-.917 90.94 90.94 0 0 0 .26-5.307c.13-5.877-.504-13.584-4.258-16.922-1.909-1.697-3.735-1.464-3.813-1.452a.45.45 0 0 0-.153.84c3.95 2.152 3.136 13.04 3.127 13.15a.45.45 0 0 0 .14.363c2.188 2.059 1.548 7.963 1.542 8.022a.449.449 0 0 0 .337.486c.73.183 1.37.641 1.888 1.153-.223 2.558-.549 4.569-.941 6.183.139-2.09.178-4.912-.417-6.527a.449.449 0 0 0-.453-.293c-.018.002-1.713.103-2.395-.921-.179-.268-.326-.838-.497-1.499-.537-2.076-1.348-5.214-4.804-6.106-4.459-1.151-12.178 2.944-12.504 3.119a.449.449 0 0 0 .212.845c.186 0 4.584-.011 7.831-.999 2.088-.635 3.43.114 4.508.717.487.272.908.507 1.325.559.599.075 1.924.505 2.19 1.354.222.707-.286 1.672-1.472 2.802-.206-.14-.505-.33-.867-.526a2.48 2.48 0 0 0-.276-.513c-.775-1.117-2.447-1.714-4.969-1.772a.305.305 0 0 0-.053.002c-.113.011-2.543.252-4.303 1.166-.236-.682-.753-1.749-1.761-2.119-.908-.334-1.962-.028-3.134.91a.448.448 0 0 0-.149.221c-.058.192-1.42 4.748-1.138 9.119l.023.349c.155 2.382.248 3.819-.224 4.353-.22.249-.632.378-1.337.42-.151.009-.287.093-.362.224s-.08.291-.013.426c.007.015.258.521.56 1.285a4.298 4.298 0 0 1-1.065-.057c-.939-.155-1.592-.547-1.941-1.167-.525-.932-.41-2.457.325-4.295 1.144-2.859.749-10.239.731-10.552a.449.449 0 0 0-.448-.424h-.002a.448.448 0 0 0-.446.429c-.041.899-.288 1.539-.734 1.901-.413.335-.913.358-1.139.347-.382-.336-1.586-1.197-4.197-1.553-1.462-.199-2.9.339-4.054 1.008-.927.124-1.884.476-2.398.686-1.432-2.532-1.408-3.659-1.121-4.161.45-.788 1.957-.79 3.286-.792.533-.001 1.036-.001 1.475-.05 2.421-.27 8.479.961 8.54.974a.449.449 0 0 0 .48-.663c-.704-1.233-6.022-2.889-10.16-3.165-2.44-.16-5.126 3.064-7.094 6.094.286-1.37.686-2.493 1.238-3.107zm37.797.512a4.84 4.84 0 0 0-1.675-.559c-.243-.03-.593-.226-.998-.452-.807-.45-1.916-1.07-3.422-1.07-.542 0-1.137.08-1.786.278-1.728.526-3.853.764-5.411.872 2.563-1.142 7.075-2.838 9.909-2.107 1.828.472 2.792 1.7 3.383 3.038zm-2.692 5.25c-.294.264-1.538 1.234-4.11 1.413-1.758.124-3.288-1.091-3.984-1.753a14.319 14.319 0 0 1 1.403-.566c.003.264.07.53.203.779.419.783 1.4 1.233 2.689 1.233.771 0 1.366-.244 1.77-.725.413-.493.517-1.124.529-1.582a6.483 6.483 0 0 1 1.507.54c.054.291.02.536-.007.661zm-24.653-.305c.642.212 1.4.506 1.895.826-.608.642-2.142 2.01-4.322 2.208-2.206.201-3.451-1.344-3.874-1.996.326-.304.959-.854 1.762-1.358-.119.371-.189.835-.058 1.31.179.649.673 1.154 1.47 1.503 1.156.505 2.265.109 2.827-1.008.23-.455.344-1 .3-1.485zm-7.379-6.262c.943-.835 1.874-1.345 2.723-1.287 2.631.175 5.411.886 7.273 1.572-1.653-.269-3.747-.55-5.27-.55-.331 0-.636.013-.903.043-.39.043-.869.044-1.377.045-.818 0-1.694.001-2.446.177zm14.152 26.705a9.532 9.532 0 0 1-.627-.037c-.322-.027-.555-.047-.742-.001-.295.074-.675.303-1.32.702-.621.384-1.387.857-2.035 1.094-.719-.091-4.434-.421-6.229 2.224-1.942 2.86-.827 8.034 3.31 15.392-.91-.682-2.161-1.81-3.505-3.585-4.369-5.772-6.389-13.889-7.317-19.798.927-.512 3.685-2.267 4.428-5.334.562-2.322-.17-4.831-2.174-7.457-.103-.16-1.152-1.813-2.222-4.352.715-1.18 1.532-2.409 2.388-3.495-.053 1.06.471 2.498 1.599 4.414a.45.45 0 0 0 .577.179c.005-.002.126-.058.324-.139a8.026 8.026 0 0 0-.418.402.449.449 0 0 0-.077.511c.06.119 1.43 2.789 4.443 2.788.155 0 .315-.007.479-.022 3.24-.294 5.166-2.785 5.246-2.891a.448.448 0 0 0-.04-.589c-.901-.902-3.323-1.533-3.597-1.603a.45.45 0 0 0-.333.826c.207.118.275.797-.033 1.41-.202.403-.688 1.016-1.664.588-.534-.234-.858-.541-.963-.914-.181-.645.305-1.347.308-1.353a.453.453 0 0 0 .074-.356c.809-.349 1.7-.56 2.58-.44 2.83.386 3.777 1.385 3.782 1.391a.45.45 0 0 0 .26.147c.044.008 1.098.184 1.969-.514.089-.071.173-.149.251-.232.031 2.429-.05 6.114-.739 7.837-.593 1.483-1.122 3.566-.274 5.07.49.868 1.357 1.41 2.578 1.612a4.96 4.96 0 0 0 1.533.037l.021.061c-.535.18-1.018.729-1.412 1.608-.614 1.371-1.086 3.931-.429 4.819zm2.445-1.67c-.196.785-.58 1.217-1.065 1.444-.285-.031-.521-.122-.658-.308-.288-.389-.161-2.381.528-3.919.315-.703.635-1.03.862-1.117.371 1.294.618 2.76.333 3.9zm.262-5.012l-.018-.054c.05-.022.099-.045.146-.069a1.132 1.132 0 0 1-.128.123zm12.161 24.834c-4.427 2.883-9.413 4.897-12.127 4.897-2.666 0-4.652-.654-5.903-1.942-1.146-1.18-1.694-2.915-1.628-5.155.128-4.343 6.02-5.58 6.079-5.592a.45.45 0 0 0 .355-.51 21.034 21.034 0 0 1-.241-3.232c.445.009.902 0 1.367-.03 5.301-.346 5.988-1.881 6.037-2.525.047-.616-.392-1.152-1.069-1.302-.787-.175-1.86-.017-2.996.151-.861.127-1.752.258-2.575.258-.377 0-.712.159-.969.459-.378.441-.567 1.203-.646 2.051-2.795-.212-4.941-1.146-5.973-1.811 1.196.045 2.808-.263 4.376-.561 1.208-.23 2.348-.447 3.239-.5 2.33-.138 9.444-.278 9.516-.279a.45.45 0 0 0 .083-.89c-2.048-.424-3.705-1.09-5.036-1.626-1.362-.548-2.262-.91-2.894-.706-.247.079-.596.192-.976.288.179-.285.328-.63.432-1.046.328-1.312.065-2.935-.334-4.344.338-.168.528-.409.704-.632.28-.354.544-.689 1.639-.849.423-.062 1.304-.191 1.349-.806.013-.174.052-.705-1.565-1.189a.463.463 0 0 0-.174-.017c-.678.068-1.109.494-1.526.905-.3.297-.605.598-1.033.8a21.222 21.222 0 0 0-.366-.88c.604-.105 1.013-.311 1.313-.651.719-.814.628-2.215.447-5.006l-.023-.349c-.245-3.8.841-7.883 1.063-8.667.86-.66 1.582-.89 2.15-.682.844.309 1.266 1.58 1.357 2.043a.449.449 0 0 0 .69.288c1.485-.99 4.103-1.293 4.388-1.324 1.567.039 2.588.292 3.251.612a4.925 4.925 0 0 0-.714-.109.45.45 0 0 0-.477.526c.002.009.147.92-.296 1.448-.228.272-.582.404-1.081.404-.948 0-1.639-.276-1.897-.758a.754.754 0 0 1 .031-.784.45.45 0 0 0-.492-.683c-.065.018-1.607.443-2.9 1.161a.452.452 0 0 0-.127.681c.092.11 2.281 2.687 5.136 2.484 3.362-.235 4.726-1.709 4.783-1.772a.43.43 0 0 0 .09-.153c.007-.019.075-.222.099-.528.285.182.458.313.463.317a.45.45 0 0 0 .574-.022c.827-.744 1.409-1.447 1.744-2.104.111.366.228.669.382.899.747 1.12 2.181 1.302 2.849 1.323.775 2.678.027 8.389.02 8.449a.448.448 0 0 0 .198.434c-.773 1.855-1.645 2.917-2.438 3.883-.809.985-1.573 1.916-2.081 3.439-1.507 4.52.059 11.35.994 15.43l.144.628c-1.67 1.959-3.979 3.93-6.785 5.758zm-13.422-12.431c.062-.677.196-1.23.434-1.508.11-.128.207-.145.287-.145.889 0 1.813-.136 2.706-.268 1.052-.155 2.045-.301 2.67-.163.187.042.383.171.368.356-.029.379-1.02 1.424-5.2 1.697a15.05 15.05 0 0 1-1.265.031zm2.789-13.653c.257-.244.463-.401.709-.45.164.053.33.117.474.179a5.456 5.456 0 0 1-.223.037 4.8 4.8 0 0 0-.96.234zm17.132 4.553c.455-1.366 1.135-2.195 1.923-3.154.894-1.089 1.886-2.297 2.738-4.507l.873-.159a.448.448 0 0 0 .365-.386c.222-1.777 1.705-3.994 2.161-4.641.269.027.484.134.665.329 1.074 1.154.659 4.831.385 7.264-.124 1.099-.222 1.966-.185 2.485.148 2.076-1.205 7.036-2.16 7.227-1.018.202-1.878-1.52-1.886-1.537a.449.449 0 0 0-.844.292c.796 3.485-.938 7.628-.956 7.669a.529.529 0 0 0-.021.06c-.338 1.26-1.039 2.591-2.057 3.94-.856-3.743-2.42-10.625-1.001-14.882z" data-color="1" class="aIptOCySncolors-019a4f0bc-0019-457e-a519-ed94d72d2ba0"></path></g></g>
</svg>
</g></svg>
